<svg xmlns="http://www.w3.org/2000/svg" viewBox="0 0 334.73 266.39"><title>1_01Ресурс 1</title><g id="Слой_2" data-name="Слой 2"><g id="Слой_1-2" data-name="Слой 1"><path d="M43,38A15.35,15.35,0,1,0,29.57,20.91,15.37,15.37,0,0,0,43,38Z" style="fill:none"/><circle cx="75.12" cy="45.58" r="5.83" transform="translate(20.9 114.72) rotate(-83.15)" style="fill:none"/><path d="M160,225.25h4.26c5.77,0,8.53-4.84,8.53-9.67a9.73,9.73,0,0,0-4.21-8.4A82.26,82.26,0,0,1,160,220.6Z" style="fill:none"/><circle cx="83" cy="16.13" r="4.48" transform="translate(57.08 96.6) rotate(-83.15)" style="fill:none"/><path d="M315.75,134.85c.09-2.81-1.54-5.63-4.9-5.63H300.59v10.62h10.26C314,139.84,315.66,137.39,315.75,134.85Z" style="fill:none"/><path d="M318.29,158.91a5.61,5.61,0,0,0-2.27-5,6.33,6.33,0,0,0-2.72-.63H300.59v10.53h12.8C316.57,163.81,318.11,161.45,318.29,158.91Z" style="fill:none"/><path d="M167.81,129.78c.25.44.5.88.74,1.33a82.36,82.36,0,0,1,8.59,27.57,17.68,17.68,0,0,0,4.06-11.85C181.2,136.64,174.83,130.86,167.81,129.78Z" style="fill:none"/><polygon points="246.68 221.35 254.22 221.35 250.43 212.57 246.68 221.35" style="fill:none"/><path d="M219.09,219.69a3.63,3.63,0,0,0-1.56-.36h-7.28v6h7.33a2.76,2.76,0,0,0,2.81-2.81A3.21,3.21,0,0,0,219.09,219.69Z" style="fill:none"/><path d="M218.94,208.77a2.87,2.87,0,0,0-2.81-3.22h-5.87v6.08h5.87A2.77,2.77,0,0,0,218.94,208.77Z" style="fill:none"/><path d="M39.71,46.35a4.12,4.12,0,0,0,.93-1.24,22.57,22.57,0,0,1-7.59-2.89c-11.93,12.92-7.23,29.15,1,43l6.69-3.56C33.62,70.24,28.65,56.41,39.71,46.35Z" style="fill:#391f47"/><path d="M160,206V220.6a82.26,82.26,0,0,0,8.58-13.41,8.11,8.11,0,0,0-4.32-1.17Z" style="fill:#ffc8d9"/><path d="M132.63,146.83c0-17.91,10.8-28.58,23.74-31.91q-2.56-2.51-5.37-4.8a4.43,4.43,0,0,1-3.59,1.2,5.11,5.11,0,0,1-2.48-1.15,82.72,82.72,0,0,0-21.48-12.59,4.43,4.43,0,0,1-2.7-3.88q-3.79-1.3-7.63-2.31a4.4,4.4,0,0,1-5.07,2.91,82.68,82.68,0,0,0-22.35-1.52h-.39a4.44,4.44,0,0,1-.51,0h0A4.4,4.4,0,0,1,84,92.6h0a4.41,4.41,0,0,1-.74-.3L83,92.15a4.43,4.43,0,0,1-.44-.29l-.25-.22a4.47,4.47,0,0,1-.35-.35L81.8,91a4.4,4.4,0,0,1-.3-.45c0-.05-.07-.1-.1-.15L73,74.55,28.51,98.16l8.28,19.14a83.21,83.21,0,0,0-9.58,90.82c20.6,39.77,68.94,54.77,108,33.5a80.64,80.64,0,0,0,15.35-10.88V197.49h13.88a19.1,19.1,0,0,1,7.82,1.57,83.85,83.85,0,0,0,5.12-21.4,36.28,36.28,0,0,1-12.23,2C148.34,179.7,132.63,168.89,132.63,146.83Zm-57.74-32h28.05c11.8,0,20.06,7.72,20.06,19.52a15,15,0,0,1-5.27,11c5.18,2.63,7.9,7.81,7.9,13.62,0,10.89-7.08,19.34-20.15,19.34H74.89Zm33,119H98.1L96,229.31H82.35l-2.08,4.52H70.39v-1.3L87,197.07h4.37l16.53,35.46Zm34.77.05h-2.81l-19.13-18.82v18.77h-9.51V197.28h3l19,17.94V197.44h9.51Z" style="fill:#ffc8d9"/><path d="M167.81,129.78a15.87,15.87,0,0,0-2.41-.2c-8.26,0-16.16,5.63-16.16,17.25,0,11.35,7.81,17.25,16,17.25a15.76,15.76,0,0,0,11.91-5.4,82.36,82.36,0,0,0-8.59-27.57C168.31,130.67,168.05,130.23,167.81,129.78Z" style="fill:#ffc8d9"/><path d="M109.2,158.91a5.61,5.61,0,0,0-2.27-5,6.33,6.33,0,0,0-2.72-.63H91.5v10.53h12.8C107.48,163.81,109,161.45,109.2,158.91Z" style="fill:#ffc8d9"/><polygon points="85.41 221.35 92.95 221.35 89.16 212.57 85.41 221.35" style="fill:#ffc8d9"/><path d="M106.66,134.85c.09-2.81-1.54-5.63-4.9-5.63H91.5v10.62h10.26C104.94,139.84,106.57,137.39,106.66,134.85Z" style="fill:#ffc8d9"/><path d="M123.46,97.58a82.72,82.72,0,0,1,21.48,12.59,5.11,5.11,0,0,0,2.48,1.15,4.43,4.43,0,0,0,3.59-1.2l.2-.19a4.31,4.31,0,0,0-.24-6.27c-8.72-6.77-14.22-10.11-24.06-14.26a4.43,4.43,0,0,0-3.44,8.17Z" style="fill:#391f47"/><path d="M73,74.55,81.4,90.44c0,.06.07.1.1.15a4.4,4.4,0,0,0,.3.45l.2.25a4.47,4.47,0,0,0,.35.35l.25.22a4.43,4.43,0,0,0,.44.29l.23.14a4.41,4.41,0,0,0,.74.3h0a4.4,4.4,0,0,0,.76.16h0a4.44,4.44,0,0,0,.51,0h.39a82.68,82.68,0,0,1,22.35,1.52,4.43,4.43,0,1,0,1.79-8.69,91.55,91.55,0,0,0-21.95-1.83l-9.2-17.31a4.43,4.43,0,0,0-6-1.83l-32,17L34,85.2,12.76,96.49a4.43,4.43,0,0,0-1.84,6l8.61,16.2A91.34,91.34,0,0,0,79.7,265.63l.87.11a90.94,90.94,0,0,0,53.69-10,4.43,4.43,0,1,0-4.16-7.83,82.07,82.07,0,0,1-48.47,9.07l-.79-.1h0A82.47,82.47,0,0,1,28.22,122a4.44,4.44,0,0,0,.52-4.93l-7.9-14.87,7.68-4.08Z" style="fill:#391f47"/><path d="M125.64,158.91c0-5.81-2.72-11-7.9-13.62a15,15,0,0,0,5.27-11c0-11.8-8.26-19.52-20.06-19.52H74.89v63.46h30.59C118.55,178.24,125.64,169.8,125.64,158.91ZM91.5,129.22h10.26c3.36,0,5,2.81,4.9,5.63-.09,2.54-1.72,5-4.9,5H91.5Zm0,34.59V153.28h12.71a6.33,6.33,0,0,1,2.72.63,5.61,5.61,0,0,1,2.27,5c-.18,2.54-1.72,4.9-4.9,4.9Z" style="fill:#391f47"/><path d="M165.4,113.79a36.26,36.26,0,0,0-9,1.14c-12.94,3.33-23.74,14-23.74,31.91,0,22.06,15.71,32.86,32.5,32.86a36.28,36.28,0,0,0,12.23-2c12.47-4.45,20.45-15.85,20.45-30.82C197.81,124.87,181.65,113.79,165.4,113.79Zm11.73,44.9a15.76,15.76,0,0,1-11.91,5.4c-8.17,0-16-5.9-16-17.25,0-11.62,7.9-17.25,16.16-17.25a15.87,15.87,0,0,1,2.41.2c7,1.08,13.39,6.86,13.39,17A17.68,17.68,0,0,1,177.14,158.69Z" style="fill:#391f47"/><polygon points="224.69 149.28 238.22 163.45 240.12 163.45 253.65 149.28 253.65 178.61 270.26 178.61 270.26 114.88 264.36 114.88 239.22 142.39 213.98 114.88 208.08 114.88 208.08 178.61 224.69 178.61 224.69 149.28" style="fill:#391f47"/><path d="M334.73,158.91c0-5.81-2.72-11-7.9-13.62a15,15,0,0,0,5.27-11c0-11.8-8.26-19.52-20.06-19.52H284v63.46h30.59C327.64,178.24,334.73,169.8,334.73,158.91Zm-34.13-29.68h10.26c3.36,0,5,2.81,4.9,5.63-.09,2.54-1.72,5-4.9,5H300.59Zm0,34.59V153.28H313.3a6.33,6.33,0,0,1,2.72.63,5.61,5.61,0,0,1,2.27,5c-.18,2.54-1.72,4.9-4.9,4.9Z" style="fill:#391f47"/><path d="M87,197.07,70.39,232.53v1.3h9.88l2.08-4.52H96l2.13,4.52h9.82v-1.3L91.39,197.07Zm-1.61,24.28,3.74-8.79L93,221.35Z" style="fill:#391f47"/><polygon points="133.18 215.22 114.21 197.28 111.24 197.28 111.24 233.83 120.76 233.83 120.76 215.06 139.89 233.88 142.69 233.88 142.69 197.44 133.18 197.44 133.18 215.22" style="fill:#391f47"/><path d="M150.54,197.49v36.34h13.88c12.06,0,18-9.2,17.94-18.35,0-6.7-3.43-13.45-10.11-16.42a19.1,19.1,0,0,0-7.82-1.57Zm22.3,18.09c0,4.83-2.76,9.67-8.53,9.67H160V206h4.26a8.11,8.11,0,0,1,4.32,1.17A9.73,9.73,0,0,1,172.84,215.58Z" style="fill:#391f47"/><path d="M225.28,214.75a8.57,8.57,0,0,0,3-6.29c0-6.76-4.73-11.18-11.49-11.18H200.74v36.34h17.52c7.49,0,11.54-4.83,11.54-11.07A8.44,8.44,0,0,0,225.28,214.75Zm-15-9.2h5.87a2.87,2.87,0,0,1,2.81,3.22,2.77,2.77,0,0,1-2.81,2.86h-5.87Zm10.14,17a2.76,2.76,0,0,1-2.81,2.81h-7.33v-6h7.28a3.63,3.63,0,0,1,1.56.36A3.21,3.21,0,0,1,220.39,222.55Z" style="fill:#391f47"/><path d="M248.29,197.07l-16.64,35.46v1.3h9.88l2.08-4.52h13.62l2.13,4.52h9.82v-1.3l-16.53-35.46Zm-1.61,24.28,3.74-8.79,3.79,8.79Z" style="fill:#391f47"/><polygon points="268.12 205.76 277.06 205.76 277.06 233.83 286.26 233.83 286.26 205.76 295.15 205.76 295.15 197.44 268.12 197.44 268.12 205.76" style="fill:#391f47"/><polygon points="321.9 210.59 310.62 210.59 310.62 197.44 301.1 197.44 301.1 233.83 310.62 233.83 310.62 219.27 321.9 219.27 321.9 233.83 331.41 233.83 331.41 197.44 321.9 197.44 321.9 210.59" style="fill:#391f47"/><path d="M42.1,45.33a23.07,23.07,0,1,0-1.46-.23C41.12,45.19,41.61,45.27,42.1,45.33ZM29.57,20.91A15.36,15.36,0,1,1,43,38,15.37,15.37,0,0,1,29.57,20.91Z" style="fill:#391f47"/><path d="M62,44a13.22,13.22,0,1,0,14.7-11.55A13.24,13.24,0,0,0,62,44ZM80.9,46.27a5.83,5.83,0,1,1-5.09-6.48A5.84,5.84,0,0,1,80.9,46.27Z" style="fill:#391f47"/><path d="M81.58,27.91a11.87,11.87,0,1,0-10.37-13.2A11.88,11.88,0,0,0,81.58,27.91Zm-3-12.32a4.48,4.48,0,1,1,3.91,5A4.48,4.48,0,0,1,78.55,15.59Z" style="fill:#391f47"/></g></g></svg>