<?xml version="1.0" encoding="utf-8"?>
<!-- Generator: Adobe Illustrator 21.0.1, SVG Export Plug-In . SVG Version: 6.00 Build 0)  -->
<svg version="1.1" id="Слой_1" xmlns="http://www.w3.org/2000/svg" xmlns:xlink="http://www.w3.org/1999/xlink" x="0px" y="0px"
	 viewBox="0 0 740 200" style="enable-background:new 0 0 740 200;" xml:space="preserve">
<style type="text/css">
	.st0{fill:#010202;}
	.st1{fill:#C26871;}
</style>
<g>
	<path class="st0" d="M89.8,121v10.3l-1.1,0.2l-0.7-2.3c-1.1-3.8-3.2-5.3-8.9-5.3c-2.2,0-4.5,0.2-6.9,0.6v15.1h4.1
		c0.2,0,0.5,0,0.7,0c2.4,0,4.9-0.4,5.2-3.2l0.2-1.8h2v12.1h-2l-0.2-1.8c-0.3-2.8-2.8-3-5.2-3c-0.2,0-0.5,0-0.7,0h-4.1v13.5
		c-0.1,0.2-0.1,0.5-0.1,0.7c0,2.2,1,3.4,3,3.7l1.7,0.3v1.8H63.5v-1.8l1.2-0.3c1.4-0.4,2.2-1.5,2.2-3.3c0-0.3-0.1-0.5-0.1-0.8v-28.7
		c0-0.2,0-0.4,0-0.6c0-1.5-0.2-3-2.2-3.5l-1.2-0.3V121L89.8,121L89.8,121L89.8,121z"/>
	<path class="st0" d="M139.3,160.3v1.8h-12.1v-1.8l0.9-0.3c1.3-0.5,1.9-1.2,1.9-1.7c0.1-0.7-0.3-1.6-0.6-2.5l-2.3-7.3h-14.8
		l-1.7,5.3c-0.7,2.1-1.2,3.7-1.2,4.5c0,0.8,0.3,1.2,2,1.6l1.2,0.3v1.8H102v-1.8l1.4-0.3c1.4-0.5,2.7-2.6,3.9-6.2l11.7-33.2h4.4
		l11.8,35.2c0.7,2.6,1.8,3.8,3.1,4.2L139.3,160.3L139.3,160.3L139.3,160.3z M113.3,145.8h13.3l-6.5-20L113.3,145.8L113.3,145.8
		L113.3,145.8z"/>
	<path class="st0" d="M187,150.5c-0.3,9.8-9,11.6-12.5,11.6c-0.1,0-0.2,0-0.3,0h-17.6v-1.8l1.2-0.3c1.9-0.5,2.2-1.5,2.2-3.3
		c0-0.3,0-0.5,0-0.8v-28.7c0-0.3,0-0.5,0-0.7c0-1.8-0.2-3-2.2-3.4l-1.2-0.3v-1.9h14.1c0.5,0,0.9,0,1.3,0c6.3,0,12.9,1.3,13.3,9.6
		c-0.3,5.9-4.6,8.7-7.4,9.6v0.3C181.7,141.2,186.7,143.1,187,150.5L187,150.5L187,150.5z M179.5,131.1c-0.1-6-4.3-7.1-8.1-7.1
		c-2.3,0-4.4,0.2-6.2,0.5v15h4.8c0.2,0,0.5,0,0.7,0C175.1,139.4,179.3,137.9,179.5,131.1L179.5,131.1L179.5,131.1z M181.3,150.6
		c-0.2-4.3-1.5-6.8-4-7.7c-2-0.7-4-1.1-6-1.1c-0.4,0-0.8,0.1-1.1,0.1h-5.1v14.3c0,2.1,1,3,6.4,3c4.6,0,9.3-1.1,9.7-8.6v-0.1
		L181.3,150.6z"/>
	<path class="st0" d="M239.6,121v1.8l-1.2,0.3c-2,0.5-2.2,2.1-2.2,4c0,0.2,0,0.5,0,0.8v22.1c0,6-4.2,12.2-14.7,12.6
		c-5.6-0.3-9.3-1.8-10.9-4.5c-1.5-2.6-2.3-4.8-2.3-6.8c0-0.2,0.1-0.4,0.1-0.6v-23.5c0-0.2,0-0.4,0-0.6c0.1-2-0.2-3-2.2-3.5l-1.3-0.3
		V121H217v1.8l-1.2,0.3c-2,0.6-2.2,1.4-2.2,3.3c0,0.2,0,0.5,0,0.7v21.7c0,5.1,1.8,10,9.8,10.2c6.5-0.2,10.1-4.5,10.1-8.9v-22.3
		c0-0.3,0-0.5,0-0.8c0-1.8-0.1-3.5-2.2-4l-1.2-0.3V121h9.8L239.6,121z"/>
	<path class="st0" d="M284.3,150.9l1.7,0.3l-2.5,11h-25.8v-1.8l1.2-0.3c2-0.5,2.2-1.6,2.2-3.4c0-0.3,0-0.5,0-0.8v-28.7
		c0-0.3,0-0.5,0-0.7c0.1-1.9-0.2-2.8-2.2-3.4l-1.2-0.3v-1.8h12.1v1.8l-1.2,0.3c-1.9,0.5-2.2,1.4-2.2,3.3c0,0.2,0,0.5,0,0.7v28.7
		c-0.1,0.2-0.1,0.3-0.1,0.5c0,1.9,1.1,2.8,7.8,2.8c5.4-0.1,8-3.1,9.1-5.9l1.1-2.4L284.3,150.9z"/>
	<path class="st0" d="M333.1,160.3v1.8h-12.1v-1.8l0.9-0.3c1.3-0.5,1.9-1.2,1.9-1.7c0.1-0.7-0.3-1.6-0.6-2.5l-2.3-7.3h-14.8
		l-1.7,5.3c-0.7,2.1-1.2,3.7-1.2,4.5c0,0.8,0.3,1.2,2,1.6l1.2,0.3v1.8h-10.8v-1.8l1.4-0.3c1.4-0.5,2.7-2.6,3.9-6.2l11.7-33.2h4.4
		l11.8,35.2c0.7,2.6,1.8,3.8,3.1,4.2L333.1,160.3L333.1,160.3L333.1,160.3z M307.1,145.8h13.3l-6.5-20L307.1,145.8L307.1,145.8
		L307.1,145.8z"/>
	<path class="st1" d="M366.1,160.3v1.8H354v-1.8l1.2-0.3c2-0.5,2.2-1.5,2.2-3.3c0-0.3,0-0.5,0-0.8v-28.8c0-0.3,0-0.5,0-0.7
		c0-1.8-0.2-2.9-2.2-3.4l-1.2-0.3V121h12.1v1.8l-1.2,0.3c-1.9,0.5-2.2,1.4-2.2,3.3c0,0.2,0,0.5,0,0.7v28.8c0,0.3,0,0.5,0,0.8
		c0,1.8,0.2,2.8,2.2,3.2l1.2,0.3v-0.1V160.3z"/>
	<path class="st1" d="M419.9,121v1.8l-1.2,0.3c-2.2,0.5-2.2,1.9-2.2,4.1l-0.7,35h-2.8l-21.9-35.5l0.3,29.4c0,0.2,0,0.4,0,0.6
		c0,2,0.3,3,2.2,3.5l1.3,0.3v1.8h-10.3v-1.8l1.2-0.3c2-0.5,2.2-1.6,2.2-3.5c0-0.2,0-0.3,0-0.6l0.3-28.8c0-0.2,0-0.4,0-0.6
		c0-2-0.3-3-2.2-3.5l-1.2-0.3v-1.8h9l19.5,31.6l-0.1-25.4c0-0.3,0-0.5,0-0.7c0-1.9-0.2-2.8-2.2-3.3l-1.2-0.3v-1.8H420L419.9,121z"/>
	<path class="st1" d="M465.3,121v10.3l-1.2,0.2l-0.7-2.3c-0.8-3.2-2.3-5.2-7.2-5.2h-3.1v32.1c0,0.3,0,0.5,0,0.7
		c0,1.8,0.2,2.7,2.2,3.1l1.3,0.3v1.8h-12.1v-1.8l1.2-0.3c2-0.5,2.2-1.5,2.2-3.3c0-0.3,0-0.5,0-0.8v-32h-3.1c-4.9,0-6.4,2-7.2,5.2
		l-0.7,2.3l-1.8-0.2v-10.3h30L465.3,121z"/>
	<path class="st1" d="M508.5,150.9l1.7,0.3l-2.5,11h-26.3v-1.8l1.2-0.3c2-0.5,2.2-1.6,2.2-3.4c0-0.3,0-0.5,0-0.8v-28.6
		c0-0.3,0-0.5,0-0.7c0-1.8-0.2-3-2.2-3.4l-1.2-0.3V121h26.3v10.3l-1.1,0.2l-0.7-2.3c-1.1-3.9-3.2-5.2-8.9-5.2
		c-2.2,0-4.5,0.2-6.9,0.6v15.1h4.1c0.2,0,0.5,0,0.7,0c2.4,0,4.8-0.4,5.2-3.2l0.2-1.7h2v12h-2l-0.2-1.8c-0.3-2.8-2.8-3-5.2-3
		c-0.2,0-0.5,0-0.7,0H490v13.7c-0.1,0.2-0.1,0.3-0.1,0.5c0,1.9,1,2.8,7.8,2.8c4.7-0.1,7.8-2,9.4-5.6l1.2-2.8L508.5,150.9
		L508.5,150.9z"/>
	<path class="st1" d="M556.9,160.3v1.8H553c-3,0-3.6-0.7-4.5-2.5l-4.2-9.3c-1.5-3.6-2.7-6.8-7-6.9h-3.1v12.5c0,0.3,0,0.5,0,0.8
		c0,1.8,0.2,2.8,2.2,3.2l1.3,0.3v1.8h-12v-1.8l1.2-0.3c2-0.5,2.2-1.5,2.2-3.3c0-0.3,0-0.5,0-0.8v-28.7c0-0.3,0-0.5,0-0.7
		c0-1.8-0.2-3-2.2-3.4l-1.2-0.3v-1.9h15.8c0.2,0,0.5,0,0.7,0c5.8,0,12,1.9,12.4,10.3c-0.1,6.8-5.1,10.2-10.9,11.4v0.2
		c3.2,1.5,4.7,4.1,5.7,6.5l3.7,7.6c1,1.7,2,2.6,3.2,3l0.8,0.3L556.9,160.3z M548.8,132c-0.1-6.5-4.1-8-8.5-8c-1.8,0-3.2,0.1-4.3,0.1
		l-1.8,0.1v16.7h4.9c0.2,0.1,0.4,0.1,0.6,0.1c1.4,0,3-0.5,5.1-1.4c2.4-1.1,3.7-3.6,4-7.7v-0.1V132z"/>
	<path class="st1" d="M584.2,160.3v1.8h-12.1v-1.8l1.2-0.3c2-0.5,2.2-1.5,2.2-3.3c0-0.3,0-0.5,0-0.8v-28.8c0-0.3,0-0.5,0-0.7
		c0-1.8-0.2-2.9-2.2-3.4l-1.2-0.3V121h12.1v1.8l-1.2,0.3c-1.9,0.5-2.2,1.4-2.2,3.3c0,0.2,0,0.5,0,0.7v28.8c0,0.3,0,0.5,0,0.8
		c0,1.8,0.2,2.8,2.2,3.2l1.2,0.3v-0.1V160.3z"/>
	<path class="st1" d="M633.6,141.3c-0.2,14.9-7.5,22-17.2,22c-10.2,0-17.1-6.9-17.3-21.9c0.2-8.3,2.1-13.9,5.6-16.8
		c3.2-2.7,6.9-4,11-4c0.2,0,0.5,0,0.7,0c0.3,0,0.7,0,1,0c4,0,7.6,1.3,10.8,3.7C631.6,127.2,633.4,132.8,633.6,141.3L633.6,141.3z
		 M627.9,142.3v-2.2c-0.2-7.3-1.5-12-4-14.1c-2.3-1.8-4.5-2.7-6.9-2.7c-0.2,0-0.5,0-0.7,0c-0.2,0-0.5,0-0.7,0
		c-2.2,0-4.4,0.9-6.7,2.8c-2.6,2.1-4,6.8-4.2,14.1v2.2c0.2,7.9,1.7,12.9,4.2,15.2c2.3,2,4.5,3.1,6.7,3.1c0.3,0,0.5,0,0.8-0.1
		c0.2,0,0.4,0.1,0.6,0.1c2.2,0,4.5-1.1,6.8-3.2c2.6-2.3,4-7.4,4.2-15.1v-0.1L627.9,142.3z"/>
	<path class="st1" d="M679.1,160.3v1.8h-3.9c-3,0-3.6-0.7-4.5-2.5l-4.2-9.3c-1.5-3.6-2.7-6.8-7-6.9h-3.1v12.5c0,0.3,0,0.5,0,0.8
		c0,1.8,0.2,2.8,2.2,3.2l1.2,0.3v1.8h-12v-1.8l1.2-0.3c2-0.5,2.2-1.5,2.2-3.3c0-0.3,0-0.5,0-0.8v-28.7c0-0.3,0-0.5,0-0.7
		c0-1.8-0.2-3-2.2-3.4l-1.2-0.3v-1.9h15.8c0.2,0,0.5,0,0.7,0c5.9,0,12,1.9,12.4,10.3c-0.1,6.8-5.1,10.2-10.9,11.4v0.2
		c3.2,1.5,4.7,4.1,5.7,6.5l3.7,7.6c1,1.7,2,2.6,3.2,3l0.8,0.3L679.1,160.3z M670.9,132c-0.1-6.5-4.1-8-8.5-8c-1.8,0-3.2,0.1-4.3,0.1
		l-1.8,0.1v16.7h4.9c0.2,0.1,0.4,0.1,0.6,0.1c1.4,0,3-0.5,5.1-1.4c2.4-1.1,3.7-3.6,4-7.7v-0.1V132z"/>
</g>
<g>
	<path class="st1" d="M332.3,70.5c0.9,1.4,2.4,3.2,4.8,3.8l3.2,0.8c3.5,0.8,5.2,2.4,6.8,3.9l1,0.9c2.9,2.7,5.5,5.1,7.1,4.7
		c0.9-0.2,1.9-1.4,2.7-3.6c0.2-0.4,0.6-0.7,1-0.7h25.6c0.4,0,0.9,0.3,1,0.7c0.9,2.2,1.8,3.5,2.7,3.7c1.5,0.3,3.9-1.9,6.7-4.5
		l0.7-0.7c1.7-1.5,4.7-3.5,7.3-4.2c0.2-0.1,0.4-0.1,0.5-0.2l3.1-1c1.5-0.5,2.8-1.5,3.6-2.8c3.5-5.4,0.7-9.8,0.5-10
		c-0.9-1.6-5-3.4-7.1-3.4c0,0,0,0,0,0c0,0,0,0-0.1,0c-0.4,0-0.4,0-0.4,0.1c-0.3,0.1-0.5,0.1-0.8,0c-6,0.7-10.7,6.4-10.7,13.3
		c0,0.6-0.5,1.1-1.1,1.1h-38.1c-0.6,0-1.1-0.5-1.1-1.1c0-7.2-5.7-13.1-12.7-13.2c-3.1,0.1-6,1.7-7.3,4
		C330.2,64.5,330.5,67.6,332.3,70.5z"/>
	<path class="st1" d="M400.2,42.5c-3-3.1-8.3-4-15.6-2.6c0,0.3-0.2,0.6-0.5,0.8l-7.3,18.9c-0.2,0.4-0.6,0.7-1,0.7
		c-0.1,0-0.3,0-0.4-0.1c-0.6-0.2-0.9-0.9-0.6-1.4l7.6-19.6c-0.5-3.6-5.2-6.4-10.9-6.4c-5.9,0-10.7,3-10.9,6.8l7.5,19.2
		c0.2,0.6-0.1,1.2-0.6,1.4c-0.1,0.1-0.3,0.1-0.4,0.1c-0.4,0-0.9-0.3-1-0.7l-7.5-19.3c0-0.1-0.1-0.2-0.1-0.3l0-0.1
		c-7.4-1.4-12.7-0.6-15.8,2.6c-4,4.2-3,11.5-2.6,13.5c7.3,0.7,13.2,6.7,13.7,14.3h36c0.5-7.8,6.2-14,13.2-14.5
		C403.3,53.5,404.2,46.6,400.2,42.5z M351.5,51.9c-1.1,0-2-0.9-2-2s0.9-2,2-2c1.1,0,2,0.9,2,2S352.6,51.9,351.5,51.9z M371.4,45.2
		c-1.1,0-2-0.9-2-2s0.9-2,2-2s2,0.9,2,2S372.5,45.2,371.4,45.2z M391.3,51.9c-1.1,0-2-0.9-2-2s0.9-2,2-2c1.1,0,2,0.9,2,2
		S392.4,51.9,391.3,51.9z"/>
</g>
<path class="st1" d="M43.8,141.3c0,3.5-2.8,6.3-6.3,6.3c-3.5,0-6.3-2.8-6.3-6.3s2.8-6.3,6.3-6.3C41,135,43.8,137.8,43.8,141.3z"/>
<path class="st1" d="M710.1,143.5c0,3.5-2.8,6.3-6.3,6.3c-3.5,0-6.3-2.8-6.3-6.3s2.8-6.3,6.3-6.3
	C707.3,137.3,710.1,140.1,710.1,143.5z"/>
</svg>
